<?xml version="1.0" encoding="UTF-8"?>
<svg width="175px" height="175px" viewBox="0 0 175 175" version="1.1" xmlns="http://www.w3.org/2000/svg" xmlns:xlink="http://www.w3.org/1999/xlink">
    <!-- Generator: Sketch 48.2 (47327) - http://www.bohemiancoding.com/sketch -->
    <title>Combined Shape</title>
    <desc>Created with Sketch.</desc>
    <defs></defs>
    <g id="海报" stroke="none" stroke-width="1" fill="none" fill-rule="evenodd" transform="translate(-341.000000, -572.000000)">
        <path d="M512.571429,743.571429 L512.571429,724.714286 C512.571429,723.767512 513.33894,723 514.285714,723 C515.232488,723 516,723.767512 516,724.714286 L516,745.285714 C516,746.232488 515.232488,747 514.285714,747 L493.714286,747 C492.767512,747 492,746.232488 492,745.285714 C492,744.33894 492.767512,743.571429 493.714286,743.571429 L512.571429,743.571429 Z M515.497897,572.502103 C515.808122,572.812327 516,573.240899 516,573.714286 L516,594.285714 C516,595.232488 515.232488,596 514.285714,596 C513.33894,596 512.571429,595.232488 512.571429,594.285714 L512.571429,575.428571 L493.714286,575.428571 C492.767512,575.428571 492,574.66106 492,573.714286 C492,572.767512 492.767512,572 493.714286,572 L514.285714,572 C514.759101,572 515.187673,572.191878 515.497897,572.502103 Z M341,745.285714 L341,724.714286 C341,723.767512 341.767512,723 342.714286,723 C343.66106,723 344.428571,723.767512 344.428571,724.714286 L344.428571,743.571429 L363.285714,743.571429 C364.232488,743.571429 365,744.33894 365,745.285714 C365,746.232488 364.232488,747 363.285714,747 L342.714286,747 C341.767512,747 341,746.232488 341,745.285714 Z M344.428571,575.428571 L344.428571,594.285714 C344.428571,595.232488 343.66106,596 342.714286,596 C341.767512,596 341,595.232488 341,594.285714 L341,574.928571 L341,572.5 C341,572.223858 341.223858,572 341.5,572 L363.285714,572 C364.232488,572 365,572.767512 365,573.714286 C365,574.66106 364.232488,575.428571 363.285714,575.428571 L344.428571,575.428571 Z" id="Combined-Shape" fill="#FF7600"></path>
    </g>
</svg>