<?xml version="1.0" encoding="UTF-8"?>
<svg width="9px" height="9px" viewBox="0 0 9 9" version="1.1" xmlns="http://www.w3.org/2000/svg" xmlns:xlink="http://www.w3.org/1999/xlink">
    <!-- Generator: Sketch 48.2 (47327) - http://www.bohemiancoding.com/sketch -->
    <title>删除</title>
    <desc>Created with Sketch.</desc>
    <defs></defs>
    <g id="iPhone-8" stroke="none" stroke-width="1" fill="none" fill-rule="evenodd" transform="translate(-659.000000, -319.000000)">
        <g id="删除" transform="translate(659.000000, 319.000000)" fill="#fff">
            <path d="M8,8.5 C8,8.77614237 7.77614237,9 7.5,9 L1.5,9 C1.22385763,9 1,8.77614237 1,8.5 L1,2 L0.5,2 C0.223857625,2 3.58653137e-15,1.77614237 3.55271368e-15,1.5 C3.51889599e-15,1.22385763 0.223857625,1 0.5,1 L2,1 L2,0.5 C2,0.223857625 2.22385763,-1.24344979e-14 2.5,-1.24344979e-14 C2.77614237,-1.24344979e-14 3,0.223857625 3,0.5 L3,1 L6,1 L6,0.5 C6,0.223857625 6.22385763,-5.72875081e-14 6.5,-5.72875081e-14 C6.77614237,-5.72875081e-14 7,0.223857625 7,0.5 L7,1 L8.5,1 C8.77614237,1 9,1.22385763 9,1.5 C9,1.77614237 8.77614237,2 8.5,2 L2,2 L2,8 L3,8 L3,3.5 C3,3.22385763 3.22385763,3 3.5,3 C3.77614237,3 4,3.22385763 4,3.5 L4,8 L5,8 L5,3.5 C5,3.22385763 5.22385763,3 5.5,3 C5.77614237,3 6,3.22385763 6,3.5 L6,8 L7,8 L7,3.5 C7,3.22385763 7.22385763,3 7.5,3 C7.77614237,3 8,3.22385763 8,3.5 L8,8.5 Z" id="Combined-Shape-Copy"></path>
        </g>
    </g>
</svg>