<?xml version="1.0" encoding="UTF-8"?>
<svg width="9px" height="9px" viewBox="0 0 9 9" version="1.1" xmlns="http://www.w3.org/2000/svg" xmlns:xlink="http://www.w3.org/1999/xlink">
    <!-- Generator: Sketch 48.2 (47327) - http://www.bohemiancoding.com/sketch -->
    <title>向下</title>
    <desc>Created with Sketch.</desc>
    <defs></defs>
    <g id="iPhone-8" stroke="none" stroke-width="1" fill="none" fill-rule="evenodd" transform="translate(-628.000000, -319.000000)">
        <g id="向下" transform="translate(628.000000, 319.000000)" fill="#fff">
            <path d="M4.71601836,0.0489436993 C4.77637748,0.0733513143 4.83293587,0.110024037 4.8818737,0.158961867 L7.71030083,2.98738899 C7.90556297,3.18265114 7.90556297,3.49923363 7.71030083,3.69449577 C7.51503868,3.88975792 7.19845619,3.88975792 7.00319405,3.69449577 L5,1.69130173 L5,6.5 C5,6.77614237 4.77614237,7 4.5,7 C4.22385763,7 4,6.77614237 4,6.5 L4,1.74794235 L2.05344658,3.69449577 C1.85818443,3.88975792 1.54160194,3.88975792 1.3463398,3.69449577 C1.15107765,3.49923363 1.15107765,3.18265114 1.3463398,2.98738899 L4.04820892,0.285519869 C4.12849606,0.116699873 4.30061967,0 4.5,0 C4.57736818,0 4.65063211,0.0175723772 4.71601836,0.0489436993 Z M1.5,8 L7.5,8 C7.77614237,8 8,8.22385763 8,8.5 C8,8.77614237 7.77614237,9 7.5,9 L1.5,9 C1.22385763,9 1,8.77614237 1,8.5 C1,8.22385763 1.22385763,8 1.5,8 Z" id="Combined-Shape-Copy-2" transform="translate(4.500000, 4.500000) scale(1, -1) translate(-4.500000, -4.500000) "></path>
        </g>
    </g>
</svg>