<?xml version="1.0" encoding="UTF-8"?>
<svg width="88px" height="88px" viewBox="0 0 88 88" version="1.1" xmlns="http://www.w3.org/2000/svg" xmlns:xlink="http://www.w3.org/1999/xlink">
    <!-- Generator: Sketch 49.3 (51167) - http://www.bohemiancoding.com/sketch -->
    <title>Group 7</title>
    <desc>Created with Sketch.</desc>
    <defs>
        <linearGradient x1="34.9971065%" y1="-29.8615949%" x2="95.3595197%" y2="128.653837%" id="linearGradient-1">
            <stop stop-color="#FCB55A" offset="0%"></stop>
            <stop stop-color="#C1842D" offset="100%"></stop>
        </linearGradient>
    </defs>
    <g id="三期" stroke="none" stroke-width="1" fill="none" fill-rule="evenodd">
        <g id="会员中心" transform="translate(-243.000000, -576.000000)" fill="url(#linearGradient-1)">
            <g id="Rectangle-7" transform="translate(0.000000, 127.000000)">
                <g id="Rectangle-7-+-Rectangle-9-Mask">
                    <g id="Group-7" transform="translate(243.000000, 449.000000)">
                        <path d="M60.7108598,30.1067625 L67,30.1067625 C69.209139,30.1067625 71,31.8976235 71,34.1067625 L71,46.1067625 C69.3431458,46.1067625 68,47.4499083 68,49.1067625 C68,50.7636168 69.3431458,52.1067625 71,52.1067625 L71,62.1067625 C71,64.3159015 69.209139,66.1067625 67,66.1067625 L21,66.1067625 C18.790861,66.1067625 17,64.3159015 17,62.1067625 L17,52.1067625 C18.6568542,52.1067625 20,50.7636168 20,49.1067625 C20,47.4499083 18.6568542,46.1067625 17,46.1067625 L17,34.1067625 C17,31.8976235 18.790861,30.1067625 21,30.1067625 L23.649147,30.1067625 L28,22.5708641 C29.1045695,20.6576936 31.5509311,20.002193 33.4641016,21.1067625 L37.7241096,23.5662792 L43.1188159,18.1715729 C44.6809131,16.6094757 47.213573,16.6094757 48.7756702,18.1715729 L60.7108598,30.1067625 Z M57.8824327,30.1067625 L47.3614566,19.5857864 C46.580408,18.8047379 45.3140781,18.8047379 44.5330295,19.5857864 L39.5172605,24.6015554 L49.0525589,30.1067625 L57.8824327,30.1067625 Z M25.9585481,30.1067625 L45.0525589,30.1067625 L32.4641016,22.8388133 C31.5075164,22.2865286 30.2843356,22.6142789 29.7320508,23.5708641 L25.9585481,30.1067625 Z M69,53.6907188 C67.2340952,52.9191622 66,51.1570815 66,49.1067625 C66,47.0564435 67.2340952,45.2943628 69,44.5228062 L69,34.1067625 C69,33.002193 68.1045695,32.1067625 67,32.1067625 L21,32.1067625 C19.8954305,32.1067625 19,33.002193 19,34.1067625 L19,44.5228062 C20.7659048,45.2943628 22,47.0564435 22,49.1067625 C22,51.1570815 20.7659048,52.9191622 19,53.6907188 L19,62.1067625 C19,63.211332 19.8954305,64.1067625 21,64.1067625 L67,64.1067625 C68.1045695,64.1067625 69,63.211332 69,62.1067625 L69,53.6907188 Z M45.7261322,46.1067625 L50,46.1067625 C50.5522847,46.1067625 51,46.5544778 51,47.1067625 C51,47.6590473 50.5522847,48.1067625 50,48.1067625 L45,48.1067625 L45,51.1067625 L50,51.1067625 C50.5522847,51.1067625 51,51.5544778 51,52.1067625 C51,52.6590473 50.5522847,53.1067625 50,53.1067625 L45,53.1067625 L45,57.1067625 C45,57.6590473 44.5522847,58.1067625 44,58.1067625 C43.4477153,58.1067625 43,57.6590473 43,57.1067625 L43,53.1067625 L38,53.1067625 C37.4477153,53.1067625 37,52.6590473 37,52.1067625 C37,51.5544778 37.4477153,51.1067625 38,51.1067625 L43,51.1067625 L43,48.1067625 L38,48.1067625 C37.4477153,48.1067625 37,47.6590473 37,47.1067625 C37,46.5544778 37.4477153,46.1067625 38,46.1067625 L41.5687317,46.1067625 L37.2928932,41.830924 C36.9023689,41.4403997 36.9023689,40.8072348 37.2928932,40.4167105 C37.6834175,40.0261862 38.3165825,40.0261862 38.7071068,40.4167105 L43.6474319,45.3570356 L48.6048119,40.3996557 C48.9953362,40.0091314 49.6285011,40.0091314 50.0190254,40.3996557 C50.4095497,40.79018 50.4095497,41.423345 50.0190254,41.8138693 L45.7261322,46.1067625 Z" id="Combined-Shape"></path>
                        <path d="M44,88 C19.699471,88 0,68.300529 0,44 C0,19.699471 19.699471,0 44,0 C68.300529,0 88,19.699471 88,44 C88,68.300529 68.300529,88 44,88 Z M44,86 C67.1959595,86 86,67.1959595 86,44 C86,20.8040405 67.1959595,2 44,2 C20.8040405,2 2,20.8040405 2,44 C2,67.1959595 20.8040405,86 44,86 Z" id="Combined-Shape-Copy"></path>
                    </g>
                </g>
            </g>
        </g>
    </g>
</svg>