<?xml version="1.0" encoding="UTF-8"?>
<svg width="88px" height="88px" viewBox="0 0 88 88" version="1.1" xmlns="http://www.w3.org/2000/svg" xmlns:xlink="http://www.w3.org/1999/xlink">
    <!-- Generator: Sketch 49.3 (51167) - http://www.bohemiancoding.com/sketch -->
    <title>Group 8</title>
    <desc>Created with Sketch.</desc>
    <defs>
        <linearGradient x1="50%" y1="0%" x2="50%" y2="100%" id="linearGradient-1">
            <stop stop-color="#F2AC52" offset="0%"></stop>
            <stop stop-color="#D09038" offset="100%"></stop>
        </linearGradient>
        <linearGradient x1="34.9971065%" y1="-29.8615949%" x2="95.3595197%" y2="128.653837%" id="linearGradient-2">
            <stop stop-color="#FCB55A" offset="0%"></stop>
            <stop stop-color="#C1842D" offset="100%"></stop>
        </linearGradient>
    </defs>
    <g id="三期" stroke="none" stroke-width="1" fill="none" fill-rule="evenodd">
        <g id="会员中心" transform="translate(-418.000000, -576.000000)">
            <g id="Rectangle-7" transform="translate(0.000000, 127.000000)">
                <g id="Rectangle-7-+-Rectangle-9-Mask">
                    <g id="Group-8" transform="translate(418.000000, 449.000000)">
                        <path d="M56.2916488,30 L67,30 C69.209139,30 71,31.790861 71,34 L71,38 C71,39.8638394 69.7252272,41.4299397 68,41.8739825 L68,66 C68,68.209139 66.209139,70 64,70 L24,70 C21.790861,70 20,68.209139 20,66 L20,41.8739825 C18.2747728,41.4299397 17,39.8638394 17,38 L17,34 C17,31.790861 18.790861,30 21,30 L31.7083512,30 C30.0475098,28.5341111 29,26.3893851 29,24 C29,19.581722 32.581722,16 37,16 C40.0120267,16 42.6352711,17.6645753 44,20.1239928 C45.3647289,17.6645753 47.9879733,16 51,16 C55.418278,16 59,19.581722 59,24 C59,26.3893851 57.9524902,28.5341111 56.2916488,30 Z M51,32 L43,32 L37,32 L21,32 C19.8954305,32 19,32.8954305 19,34 L19,38 C19,39.1045695 19.8954305,40 21,40 L67,40 C68.1045695,40 69,39.1045695 69,38 L69,34 C69,32.8954305 68.1045695,32 67,32 L51,32 Z M43,24 C43,20.6862915 40.3137085,18 37,18 C33.6862915,18 31,20.6862915 31,24 C31,27.3137085 33.6862915,30 37,30 L43,30 L43,24 Z M22,42 L22,66 C22,67.1045695 22.8954305,68 24,68 L64,68 C65.1045695,68 66,67.1045695 66,66 L66,42 L22,42 Z M51,18 C47.6862915,18 45,20.6862915 45,24 L45,30 L51,30 C54.3137085,30 57,27.3137085 57,24 C57,20.6862915 54.3137085,18 51,18 Z" id="Combined-Shape" fill="url(#linearGradient-1)"></path>
                        <path d="M44,88 C19.699471,88 0,68.300529 0,44 C0,19.699471 19.699471,0 44,0 C68.300529,0 88,19.699471 88,44 C88,68.300529 68.300529,88 44,88 Z M44,86 C67.1959595,86 86,67.1959595 86,44 C86,20.8040405 67.1959595,2 44,2 C20.8040405,2 2,20.8040405 2,44 C2,67.1959595 20.8040405,86 44,86 Z" id="Combined-Shape-Copy-2" fill="url(#linearGradient-2)"></path>
                    </g>
                </g>
            </g>
        </g>
    </g>
</svg>