<?xml version="1.0" encoding="UTF-8"?>
<svg width="88px" height="88px" viewBox="0 0 88 88" version="1.1" xmlns="http://www.w3.org/2000/svg" xmlns:xlink="http://www.w3.org/1999/xlink">
    <!-- Generator: Sketch 49.3 (51167) - http://www.bohemiancoding.com/sketch -->
    <title>Group 6</title>
    <desc>Created with Sketch.</desc>
    <defs>
        <linearGradient x1="16.4990234%" y1="12.0605469%" x2="88.515625%" y2="92.0175781%" id="linearGradient-1">
            <stop stop-color="#FFB557" offset="0%"></stop>
            <stop stop-color="#AE7520" offset="100%"></stop>
        </linearGradient>
    </defs>
    <g id="三期" stroke="none" stroke-width="1" fill="none" fill-rule="evenodd">
        <g id="会员中心" transform="translate(-69.000000, -576.000000)" fill="url(#linearGradient-1)">
            <g id="Rectangle-7" transform="translate(0.000000, 127.000000)">
                <g id="Rectangle-7-+-Rectangle-9-Mask">
                    <g id="Group-6" transform="translate(69.000000, 449.000000)">
                        <path d="M44,88 C19.699471,88 0,68.300529 0,44 C0,19.699471 19.699471,0 44,0 C68.300529,0 88,19.699471 88,44 C88,68.300529 68.300529,88 44,88 Z M44,86 C67.1959595,86 86,67.1959595 86,44 C86,20.8040405 67.1959595,2 44,2 C20.8040405,2 2,20.8040405 2,44 C2,67.1959595 20.8040405,86 44,86 Z" id="Combined-Shape"></path>
                        <path d="M65.0821201,27 L71.4231201,41.341 C71.9293701,42.624 72.2041201,43.388 71.4231201,44.169 L45.4911201,72.101 C45.1011201,72.492 44.5891201,72.687 44.0771201,72.687 C43.5651201,72.687 43.0531201,72.492 42.6631201,72.101 L16.5151201,43.953 C15.7341201,43.172 15.9293701,42.486 16.5151201,41.125 L22.6391201,27 L65.0821201,27 Z M44.0773701,70.682 L70.0093701,42.755 L69.9093701,42.648 L64.1673701,29 L23.5573701,29 L17.9823701,42.486 L18.0093701,42.624 L44.0773701,70.682 Z M26.9293701,37 L60.9293701,37 C61.4813701,37 61.9293701,37.448 61.9293701,38 C61.9293701,38.552 61.4813701,39 60.9293701,39 L26.9293701,39 C26.3773701,39 25.9293701,38.552 25.9293701,38 C25.9293701,37.448 26.3773701,37 26.9293701,37 Z" id="Combined-Shape"></path>
                    </g>
                </g>
            </g>
        </g>
    </g>
</svg>