<?xml version="1.0" encoding="UTF-8"?>
<svg width="88px" height="88px" viewBox="0 0 88 88" version="1.1" xmlns="http://www.w3.org/2000/svg" xmlns:xlink="http://www.w3.org/1999/xlink">
    <!-- Generator: Sketch 49.3 (51167) - http://www.bohemiancoding.com/sketch -->
    <title>图标</title>
    <desc>Created with Sketch.</desc>
    <defs>
        <linearGradient x1="50%" y1="0%" x2="50%" y2="100%" id="linearGradient-1">
            <stop stop-color="#FFAE00" offset="0%"></stop>
            <stop stop-color="#FF5D00" offset="100%"></stop>
        </linearGradient>
        <path d="M17,44 L44,44 L30.5202511,67 C22.4513029,62.4059107 17.0090005,53.8383553 17,44 Z M58,20.6374688 L44.49925,44 L31,20.6374688 C34.9737208,18.3368859 39.5759764,17 44.49925,17 C49.4240236,17 54.0247792,18.3368859 58,20.6374688 Z M57.9797778,67 L44,44 L72,44 C71.9906667,53.8383553 66.3455556,62.4059107 57.9797778,67 Z" id="path-2"></path>
        <filter x="-8.2%" y="-13.0%" width="127.3%" height="130.0%" filterUnits="objectBoundingBox" id="filter-3">
            <feOffset dx="3" dy="1" in="SourceAlpha" result="shadowOffsetOuter1"></feOffset>
            <feGaussianBlur stdDeviation="2" in="shadowOffsetOuter1" result="shadowBlurOuter1"></feGaussianBlur>
            <feColorMatrix values="0 0 0 0 1   0 0 0 0 0.541176471   0 0 0 0 0  0 0 0 1 0" type="matrix" in="shadowBlurOuter1"></feColorMatrix>
        </filter>
    </defs>
    <g id="三期" stroke="none" stroke-width="1" fill="none" fill-rule="evenodd">
        <g id="会员中心" transform="translate(-316.000000, -871.000000)">
            <g id="图标" transform="translate(316.000000, 871.000000)">
                <g id="Group">
                    <circle id="Oval" fill="url(#linearGradient-1)" cx="44" cy="44" r="44"></circle>
                    <g id="Combined-Shape">
                        <use fill="black" fill-opacity="1" filter="url(#filter-3)" xlink:href="#path-2"></use>
                        <use fill="#FFFFFF" fill-rule="evenodd" xlink:href="#path-2"></use>
                    </g>
                    <path d="M44,79 C24.6700338,79 9,63.3299662 9,44 C9,24.6700338 24.6700338,9 44,9 C63.3299662,9 79,24.6700338 79,44 C79,63.3299662 63.3299662,79 44,79 Z M44,76 C61.673112,76 76,61.673112 76,44 C76,26.326888 61.673112,12 44,12 C26.326888,12 12,26.326888 12,44 C12,61.673112 26.326888,76 44,76 Z" id="Combined-Shape" fill="#FFFFFF"></path>
                </g>
            </g>
        </g>
    </g>
</svg>