
<svg width="108px" height="108px" viewBox="0 0 108 108" version="1.1" xmlns="http://www.w3.org/2000/svg" xmlns:xlink="http://www.w3.org/1999/xlink">
    <!-- Generator: Sketch 51.3 (57544) - http://www.bohemiancoding.com/sketch -->
    <desc>Created with Sketch.</desc>
    <defs></defs>
    <g id="Page-1" stroke="none" stroke-width="1" fill="none" fill-rule="evenodd">
        <g id="会员中心-4" transform="translate(-157.000000, -222.000000)" fill="#1DC11D">
            <g id="入会成功" transform="translate(157.000000, 208.000000)">
                <path d="M52.6379828,50.6526024 L84.2595154,83.2889718 C85.2718408,84.3337859 85.2455034,86.0014271 84.2006892,87.0137528 C83.1558751,88.0260782 81.4882338,87.9997408 80.4759082,86.9549265 L50.7802841,56.0320468 L33.3923384,72.014092 C32.3212509,72.9985771 30.6548798,72.9283717 29.6703947,71.8572839 C28.6859097,70.7861961 28.7561151,69.1198252 29.8272028,68.1353402 L48.9636112,50.546204 C50.0148234,49.5799873 51.6444424,49.6271762 52.6379828,50.6526024 Z M54,122 C24.1766235,122 0,97.8233765 0,68 C0,38.1766235 24.1766235,14 54,14 C66.3831736,14 78.1340119,18.183835 87.6201115,25.7400786 C88.7580259,26.6464951 88.9456918,28.3037527 88.0392753,29.4416669 C87.1328588,30.5795811 85.4756012,30.767247 84.3376872,29.8608307 C75.7761365,23.0410454 65.1798751,19.2682926 54,19.2682926 C27.0862211,19.2682926 5.26829263,41.0862211 5.26829263,68 C5.26829263,94.9137789 27.0862211,116.731707 54,116.731707 C80.9137789,116.731707 102.731707,94.9137789 102.731707,68 C102.731707,58.7722402 100.165239,49.9293257 95.3934054,42.2697707 C94.6241482,41.03499 95.0015297,39.4103964 96.2363102,38.6411394 C97.4710908,37.8718822 99.0956844,38.2492634 99.8649417,39.4840441 C105.153802,47.9735098 108,57.7802491 108,68 C108,97.8233765 83.8233765,122 54,122 Z" id="Shape-Copy-5" transform="translate(54.000000, 68.000000) scale(1, -1) translate(-54.000000, -68.000000) "></path>
            </g>
        </g>
    </g>
</svg>
