<?xml version="1.0" encoding="UTF-8"?>
<svg width="88px" height="88px" viewBox="0 0 88 88" version="1.1" xmlns="http://www.w3.org/2000/svg" xmlns:xlink="http://www.w3.org/1999/xlink">
    <!-- Generator: Sketch 52.2 (67145) - http://www.bohemiancoding.com/sketch -->
    <title>积分</title>
    <desc>Created with Sketch.</desc>
    <defs>
        <linearGradient x1="0%" y1="0%" x2="100%" y2="100%" id="linearGradient-1">
            <stop stop-color="#65EBFF" offset="0%"></stop>
            <stop stop-color="#3F72F9" offset="100%"></stop>
        </linearGradient>
    </defs>
    <g id="Page-1" stroke="none" stroke-width="1" fill="none" fill-rule="evenodd">
        <g id="加购有礼手机端4" transform="translate(-416.000000, -411.000000)">
            <g id="加购" transform="translate(0.000000, 297.000000)">
                <g id="状态1" transform="translate(24.000000, 98.000000)">
                    <g id="积分" transform="translate(362.000000, 0.000000)">
                        <g transform="translate(30.000000, 16.000000)">
                            <circle id="Combined-Shape-Copy-3" fill="#FFFFFF" cx="44" cy="44" r="44"></circle>
                            <path d="M65,65 C65,65.59 64.358,66.344 63.142,67.115 C60.163,69.002 53.648,71 44,71 C34.352,71 27.837,69.002 24.858,67.115 C23.642,66.344 23,65.59 23,65 L23,58.142 C23.968,58.895 25.257,59.586 26.811,60.194 C27.785,60.575 28.862,60.923 30.027,61.233 C33.9,62.265 38.743,62.88 44,62.88 C49.257,62.88 54.1,62.265 57.973,61.233 C59.138,60.923 60.215,60.575 61.189,60.194 C62.743,59.586 64.032,58.895 65,58.142 L65,65 Z M65,51.618 L65,54.88 C65,56.043 62.575,57.832 57.973,59.154 C56.584,59.554 54.997,59.91 53.216,60.194 C50.562,60.616 47.488,60.88 44,60.88 C40.512,60.88 37.438,60.616 34.784,60.194 C33.003,59.91 31.416,59.554 30.027,59.154 C25.425,57.832 23,56.043 23,54.88 L23,51.618 L23,47.516 C23.968,48.268 25.257,48.959 26.812,49.567 C27.785,49.948 28.862,50.296 30.027,50.606 C33.901,51.639 38.743,52.254 44,52.254 C49.257,52.254 54.099,51.639 57.973,50.606 C59.138,50.296 60.215,49.948 61.188,49.567 C62.743,48.959 64.032,48.268 65,47.516 L65,51.618 Z M65,40.991 L65,44.254 C65,45.416 62.575,47.205 57.973,48.528 C56.584,48.927 54.997,49.283 53.215,49.567 C50.562,49.99 47.488,50.254 44,50.254 C40.512,50.254 37.438,49.99 34.785,49.567 C33.003,49.283 31.416,48.927 30.027,48.528 C25.425,47.205 23,45.416 23,44.254 L23,40.991 L23,36.889 C23.968,37.641 25.257,38.332 26.812,38.94 C27.785,39.321 28.862,39.669 30.027,39.98 C33.901,41.012 38.743,41.627 44,41.627 C49.257,41.627 54.099,41.012 57.973,39.98 C59.138,39.669 60.215,39.321 61.188,38.94 C62.743,38.332 64.032,37.641 65,36.889 L65,40.991 Z M65,30.365 L65,33.627 C65,34.789 62.575,36.578 57.973,37.901 C56.584,38.3 54.997,38.656 53.215,38.94 C50.562,39.363 47.488,39.627 44,39.627 C40.512,39.627 37.438,39.363 34.785,38.94 C33.003,38.656 31.416,38.3 30.027,37.901 C25.425,36.578 23,34.789 23,33.627 L23,30.365 L23,26.262 C23.968,27.015 25.257,27.706 26.811,28.313 C27.785,28.694 28.862,29.042 30.027,29.353 C33.9,30.385 38.743,31 44,31 C49.257,31 54.1,30.385 57.973,29.353 C59.138,29.042 60.215,28.694 61.189,28.313 C62.743,27.706 64.032,27.015 65,26.262 L65,30.365 Z M65,23 C65,23.561 64.417,24.269 63.317,25 C62.139,25.783 60.354,26.59 57.973,27.274 C56.584,27.673 54.997,28.03 53.216,28.313 C50.562,28.736 47.488,29 44,29 C40.512,29 37.438,28.736 34.784,28.313 C33.003,28.03 31.416,27.673 30.027,27.274 C27.646,26.59 25.861,25.783 24.683,25 C23.583,24.269 23,23.561 23,23 C23,20.964 30.412,17 44,17 C57.588,17 65,20.964 65,23 Z M21,23 L21,33.627 L21,44.254 L21,54.88 L21,65 C21,69.418 31.297,73 44,73 C56.703,73 67,69.418 67,65 L67,54.88 L67,44.254 L67,33.627 L67,23 C67,18.582 56.703,15 44,15 C31.297,15 21,18.582 21,23 Z" id="Page-1" fill="url(#linearGradient-1)"></path>
                        </g>
                    </g>
                </g>
            </g>
        </g>
    </g>
</svg>