<?xml version="1.0" encoding="UTF-8"?>
<svg width="88px" height="88px" viewBox="0 0 88 88" version="1.1" xmlns="http://www.w3.org/2000/svg" xmlns:xlink="http://www.w3.org/1999/xlink">
    <!-- Generator: Sketch 49.3 (51167) - http://www.bohemiancoding.com/sketch -->
    <title>Group 2</title>
    <desc>Created with Sketch.</desc>
    <defs>
        <linearGradient x1="34.9971065%" y1="-29.8615949%" x2="95.3595197%" y2="128.653837%" id="linearGradient-1">
            <stop stop-color="#FCB55A" offset="0%"></stop>
            <stop stop-color="#C1842D" offset="100%"></stop>
        </linearGradient>
        <linearGradient x1="50%" y1="0%" x2="50%" y2="100%" id="linearGradient-2">
            <stop stop-color="#F0AB51" offset="0%"></stop>
            <stop stop-color="#CF9038" offset="100%"></stop>
        </linearGradient>
    </defs>
    <g id="三期" stroke="none" stroke-width="1" fill="none" fill-rule="evenodd">
        <g id="缺失icon" transform="translate(-217.000000, -44.000000)">
            <g id="Group-2" transform="translate(217.000000, 44.000000)">
                <path d="M44,88 C19.699471,88 0,68.300529 0,44 C0,19.699471 19.699471,0 44,0 C68.300529,0 88,19.699471 88,44 C88,68.300529 68.300529,88 44,88 Z M44,86 C67.1959595,86 86,67.1959595 86,44 C86,20.8040405 67.1959595,2 44,2 C20.8040405,2 2,20.8040405 2,44 C2,67.1959595 20.8040405,86 44,86 Z" id="Combined-Shape-Copy-3" fill="url(#linearGradient-1)"></path>
                <path d="M30.9999813,68.9999857 L57.0001771,68.9999857 C57.5524619,68.9999857 58.0001771,69.447701 58.0001771,69.9999857 L58.0001771,70 C58.0001771,70.5522847 57.5524619,71 57.0001771,71 L30.9999813,71 C30.4476966,71 29.9999813,70.5522847 29.9999813,70 L29.9999813,69.9999857 C29.9999813,69.447701 30.4476966,68.9999857 30.9999813,68.9999857 Z M43.1979736,18.3940028 C43.401975,18.1310009 43.7059772,18 44.0109793,18 C44.3099814,18 44.6099835,18.1270009 44.8139849,18.3820027 L57.2940582,35.4840963 L69.707124,32.9110779 C69.8011247,32.8850778 69.8951253,32.8730777 69.986126,32.8730777 C70.6181304,32.8730777 71.131134,33.4550818 70.9701329,34.0990864 L60.986077,65.0002571 L27.0088814,65.0002571 L17.0298256,34.1160865 C16.8688245,33.4720819 17.3828281,32.8900778 18.0138325,32.8910778 C18.1078331,32.8910778 18.2048338,32.9030779 18.3028345,32.9310781 L30.9219018,35.6540975 L43.1979736,18.3940028 Z M55.7320473,36.7331052 L44.0229794,20.5950185 L32.5029128,36.8801063 L31.675907,37.9471139 L30.3768979,37.5791113 L19.3928421,35.3180951 L28.5698923,63.0002429 L59.4250661,63.0002429 L68.6121164,35.2840949 L57.8220619,37.4131101 L56.554053,37.7601126 L55.7320473,36.7331052 Z M39.0339445,53.2352017 L39.7849497,48.9741712 L36.6149276,45.9691498 C36.3109255,45.6811477 36.4739266,45.1691441 36.8889295,45.1111437 L41.2839602,44.4901392 L43.2619741,40.5911114 C43.3549747,40.4091101 43.5309759,40.3171094 43.7079772,40.3171094 C43.8849784,40.3171094 44.0609796,40.4091101 44.1539803,40.5911114 L46.1319941,44.4901392 L50.5270249,45.1111437 C50.9410278,45.1691441 51.1050289,45.6811477 50.8010268,45.9691498 L47.6300046,48.9741712 L48.3820099,53.2352017 C48.4390103,53.559204 48.1820085,53.8232059 47.8900064,53.8232059 C47.8150059,53.8232059 47.7370054,53.8062058 47.6620048,53.7672055 L43.7079772,51.746191 L39.7539495,53.7672055 C39.678949,53.8062058 39.6009485,53.8232059 39.5259479,53.8232059 C39.2339459,53.8232059 38.9769441,53.559204 39.0339445,53.2352017 Z M36.6089275,43.1301295 C35.6499208,43.2661305 34.8719154,43.9231352 34.5769133,44.8451418 C34.2829113,45.7671483 34.535913,46.7541554 35.238918,47.4201601 L37.6289347,49.6861763 L37.0639307,52.8881992 C36.9349298,53.6182044 37.1339312,54.3612097 37.6089345,54.9272138 C38.0869379,55.4962178 38.7859428,55.8232202 39.5259479,55.8232202 C39.9189507,55.8232202 40.3119534,55.7282195 40.6639559,55.5482182 L43.7079772,53.9922071 L46.7519985,55.5482182 C47.1040009,55.7282195 47.4970037,55.8232202 47.8900064,55.8232202 C48.6300116,55.8232202 49.3290165,55.4962178 49.8070198,54.9272138 C50.2820232,54.3612097 50.4800245,53.6182044 50.3520236,52.8881992 L49.7870197,49.6861763 L52.1770364,47.4201601 C52.8790413,46.7541554 53.1330431,45.7671483 52.838041,44.8451418 C52.544039,43.9231352 51.7650335,43.2661305 50.8070268,43.1301295 L47.4440033,42.6551261 L45.9369928,39.6861049 C45.5089898,38.8420989 44.6549838,38.3170951 43.7079772,38.3170951 C42.7609706,38.3170951 41.9069646,38.8420989 41.4789616,39.6861049 L39.9719511,42.6551261 L36.6089275,43.1301295 Z" id="Rectangle-6" fill="url(#linearGradient-2)"></path>
            </g>
        </g>
    </g>
</svg>