<?xml version="1.0" encoding="UTF-8"?>
<svg width="88px" height="88px" viewBox="0 0 88 88" version="1.1" xmlns="http://www.w3.org/2000/svg" xmlns:xlink="http://www.w3.org/1999/xlink">
    <!-- Generator: Sketch 49.3 (51167) - http://www.bohemiancoding.com/sketch -->
    <title>图标</title>
    <desc>Created with Sketch.</desc>
    <defs>
        <linearGradient x1="50%" y1="0%" x2="50%" y2="100%" id="linearGradient-1">
            <stop stop-color="#FFE500" offset="0%"></stop>
            <stop stop-color="#FF8500" offset="100%"></stop>
        </linearGradient>
        <path d="M50.2132034,65.2132034 L50.2132034,31.2132034 C50.2132034,30.1086339 51.1086339,29.2132034 52.2132034,29.2132034 C53.3177729,29.2132034 54.2132034,30.1086339 54.2132034,31.2132034 L54.2132034,67.2132034 C54.2132034,68.3177729 53.3177729,69.2132034 52.2132034,69.2132034 L36.2132034,69.2132034 C35.1086339,69.2132034 34.2132034,68.3177729 34.2132034,67.2132034 C34.2132034,66.1086339 35.1086339,65.2132034 36.2132034,65.2132034 L50.2132034,65.2132034 Z" id="path-2"></path>
        <filter x="-22.5%" y="-16.2%" width="175.0%" height="137.5%" filterUnits="objectBoundingBox" id="filter-3">
            <feOffset dx="3" dy="1" in="SourceAlpha" result="shadowOffsetOuter1"></feOffset>
            <feGaussianBlur stdDeviation="2" in="shadowOffsetOuter1" result="shadowBlurOuter1"></feGaussianBlur>
            <feColorMatrix values="0 0 0 0 1   0 0 0 0 0.40845788   0 0 0 0 0  0 0 0 0.624943388 0" type="matrix" in="shadowBlurOuter1"></feColorMatrix>
        </filter>
    </defs>
    <g id="三期" stroke="none" stroke-width="1" fill="none" fill-rule="evenodd">
        <g id="会员中心" transform="translate(-70.000000, -871.000000)">
            <g id="图标" transform="translate(70.000000, 871.000000)">
                <path d="M88,25 L0,25 L0,16 C-5.41083001e-16,11.581722 3.581722,8 8,8 L23,8 L23,3 C23,1.34314575 24.3431458,3.04359188e-16 26,0 C27.6568542,-3.04359188e-16 29,1.34314575 29,3 L29,8 L59,8 L59,3 C59,1.34314575 60.3431458,3.04359188e-16 62,0 C63.6568542,-3.04359188e-16 65,1.34314575 65,3 L65,8 L80,8 C84.418278,8 88,11.581722 88,16 L88,25 Z M88,29 L88,80 C88,84.418278 84.418278,88 80,88 L8,88 C3.581722,88 5.41083001e-16,84.418278 0,80 L0,29 L88,29 Z" id="Combined-Shape" fill="url(#linearGradient-1)"></path>
                <g id="Combined-Shape" transform="translate(44.213203, 49.213203) rotate(-315.000000) translate(-44.213203, -49.213203) ">
                    <use fill="black" fill-opacity="1" filter="url(#filter-3)" xlink:href="#path-2"></use>
                    <use fill="#FFFFFF" fill-rule="evenodd" xlink:href="#path-2"></use>
                </g>
            </g>
        </g>
    </g>
</svg>